<?xml version="1.0" encoding="UTF-8"?>
<svg id="Camada_1" data-name="Camada 1" xmlns="http://www.w3.org/2000/svg" xmlns:xlink="http://www.w3.org/1999/xlink" version="1.1" viewBox="0 0 1000 1000">
  <defs>
    <style>
      .cls-1 {
        fill: url(#Gradiente_sem_nome_4);
      }

      .cls-1, .cls-2 {
        stroke-width: 0px;
      }

      .cls-2 {
        fill: #000;
      }

      .cls-3 {
        fill: none;
        stroke: url(#Gradiente_sem_nome_4-2);
        stroke-miterlimit: 10;
        stroke-width: 1.9px;
      }
    </style>
    <linearGradient id="Gradiente_sem_nome_4" data-name="Gradiente sem nome 4" x1="39" y1="489.8" x2="197.5" y2="489.8" gradientUnits="userSpaceOnUse">
      <stop offset="0" stop-color="#e13613"/>
      <stop offset="1" stop-color="#df6011"/>
    </linearGradient>
    <linearGradient id="Gradiente_sem_nome_4-2" data-name="Gradiente sem nome 4" x1="226.5" y1="579.8" x2="978" y2="579.8" xlink:href="#Gradiente_sem_nome_4"/>
  </defs>
  <g>
    <path class="cls-2" d="M310.5,556.3l-27.8-41.5h-22.4v41.5h-28.5v-129.7h59.3c30.6,0,48.9,16.1,48.9,42.8v.4c0,20.9-11.3,34.1-27.8,40.2l31.7,46.3h-33.3ZM311.1,470.9c0-12.2-8.5-18.5-22.4-18.5h-28.3v37.2h28.9c13.9,0,21.9-7.4,21.9-18.3v-.4Z"/>
    <path class="cls-2" d="M428.7,558.5c-40,0-68.7-29.8-68.7-66.7v-.4c0-36.9,29.1-67.1,69.1-67.1s68.7,29.8,68.7,66.7v.4c0,36.9-29.1,67.1-69.1,67.1ZM468,491.4c0-22.2-16.3-40.8-39.3-40.8s-38.9,18.2-38.9,40.4v.4c0,22.2,16.3,40.8,39.3,40.8s38.9-18.2,38.9-40.4v-.4Z"/>
    <path class="cls-2" d="M601.9,556.3l-27.8-41.5h-22.4v41.5h-28.5v-129.7h59.3c30.6,0,48.9,16.1,48.9,42.8v.4c0,20.9-11.3,34.1-27.8,40.2l31.7,46.3h-33.3ZM602.5,470.9c0-12.2-8.5-18.5-22.4-18.5h-28.3v37.2h28.9c13.9,0,21.9-7.4,21.9-18.3v-.4Z"/>
    <path class="cls-2" d="M658.4,556.3v-129.7h28.5v129.7h-28.5Z"/>
    <path class="cls-2" d="M780.2,558.5c-38.2,0-66.5-29.5-66.5-66.7v-.4c0-36.9,27.8-67.1,67.6-67.1s39.1,8.2,51.1,20l-18.2,20.9c-10-9.1-20.2-14.6-33.2-14.6-21.9,0-37.6,18.2-37.6,40.4v.4c0,22.2,15.4,40.8,37.6,40.8s23.9-5.9,34.1-15.2l18.2,18.3c-13.3,14.3-28.2,23.2-53.2,23.2Z"/>
    <path class="cls-2" d="M939.8,556.3l-40.2-55.2-15,15.6v39.6h-28.5v-129.7h28.5v56.7l52.6-56.7h34.5l-52.8,55,55.2,74.7h-34.3Z"/>
  </g>
  <path class="cls-1" d="M117.2,488.7c-1.6-1.3-3.2-2.6-4.6-4-24-24-48-48-72-72-.2-.2-.4-.4-.6-.6-.4-.5-1.2-.8-.9-1.5.3-.8,1.2-.5,1.8-.5,39.3,0,78.6-.1,117.9,0,19.6,0,36.4,15.8,38.5,35.4,2.3,21.5-12.1,40.3-33.3,43.8-2.3.4-4.7.6-7,.6-11.8,0-23.6,0-35.4,0-.8,0-1.6-.2-2.5.3.2.9,1,1.4,1.6,2,24.8,24.8,49.6,49.6,74.5,74.5.4.4.8.8,1.2,1.2.3.3.7.6.4,1.1-.2.4-.7.4-1.1.4-.6,0-1.1,0-1.7,0-24.3,0-48.6,0-72.8,0-2.3,0-4-.7-5.7-2.3-25-25.1-50-50.1-75-75.1-.3-.3-.6-.6-.9-.9-.3-.3-.8-.7-.6-1.2.2-.6.8-.4,1.3-.4.8,0,1.5,0,2.3,0,23.9,0,47.7,0,71.6,0,.8,0,1.6,0,2.4,0,.2-.3.4-.6.6-.9Z"/>
  <line class="cls-3" x1="226.5" y1="579.8" x2="978" y2="579.8"/>
  <g>
    <path class="cls-2" d="M299.4,611.8v3h-14v13.5h12.4v3h-12.4v10c0,1.7.3,2.9,1,3.6.7.7,1.6,1.1,2.8,1.1h10.8v3h-10.8c-2.2,0-4-.7-5.3-2-1.3-1.3-1.9-3.2-1.9-5.7v-29.4h17.3Z"/>
    <polygon class="cls-2" points="349.4 611.8 367.2 635 367.2 611.8 370.4 611.8 370.4 648.9 367.2 648.9 367.2 639.9 349.7 617.2 349.7 648.9 346.5 648.9 346.5 611.8 349.4 611.8 349.4 611.8"/>
    <path class="cls-2" d="M439.9,615.3c-1.2-.3-2.5-.6-4.1-.8-1.6-.2-3.4-.4-5.3-.4s-3.1.3-4.3.9c-1.2.6-2.2,1.5-3,2.8-.8,1.3-1.4,2.9-1.8,5-.4,2-.6,4.5-.6,7.4s.2,5.7.6,7.8c.4,2.1,1,3.8,1.8,5,.8,1.2,1.8,2.1,3,2.7,1.2.5,2.6.8,4.2.8s2.6,0,4-.3c1.4-.2,2.5-.4,3.3-.6v-14.2h-7.4v-3h10.8v19.3c-1.6.5-3.4.9-5.3,1.2-1.9.3-3.7.4-5.5.4s-3.9-.3-5.5-1c-1.6-.7-3-1.7-4.1-3.2-1.1-1.5-2-3.5-2.6-6-.6-2.5-.9-5.5-.9-9.2,0-6.6,1.1-11.4,3.3-14.4,2.2-3,5.5-4.5,9.9-4.5s4.1.1,5.7.4c1.6.2,3,.5,4.1.7l-.3,3.1h0Z"/>
    <path class="cls-2" d="M505.7,611.8v3h-14v13.5h12.4v3h-12.4v10c0,1.7.3,2.9,1,3.6.7.7,1.6,1.1,2.8,1.1h10.8v3h-10.8c-2.2,0-4-.7-5.3-2-1.3-1.3-1.9-3.2-1.9-5.7v-29.4h17.3Z"/>
    <polygon class="cls-2" points="555.7 611.8 573.5 635 573.5 611.8 576.8 611.8 576.8 648.9 573.5 648.9 573.5 639.9 556.1 617.2 556.1 648.9 552.8 648.9 552.8 611.8 555.7 611.8 555.7 611.8"/>
    <polygon class="cls-2" points="629.1 611.8 629.1 628.2 646.1 628.2 646.1 611.8 649.4 611.8 649.4 648.9 646.1 648.9 646.1 631.2 629.1 631.2 629.1 648.9 625.7 648.9 625.7 611.8 629.1 611.8 629.1 611.8"/>
    <path class="cls-2" d="M701,648.9h-3.3v-24.1c0-1.9.2-3.7.6-5.4.4-1.7,1-3.1,1.9-4.3.9-1.2,2-2.1,3.4-2.8,1.4-.7,3.2-1,5.2-1s3.9.3,5.3,1c1.4.7,2.6,1.6,3.4,2.8.9,1.2,1.5,2.6,1.8,4.3.4,1.7.5,3.5.5,5.4v24.1h-3.3v-14.7h-15.5v14.7h0ZM716.5,631.2v-6.4c0-1.5-.1-2.9-.3-4.2-.2-1.3-.6-2.4-1.2-3.4-.6-.9-1.4-1.7-2.4-2.3-1-.6-2.3-.8-3.8-.8s-2.8.3-3.8.8c-1,.6-1.8,1.3-2.4,2.3-.6.9-1,2.1-1.2,3.4-.2,1.3-.3,2.7-.3,4.2v6.4h15.5Z"/>
    <path class="cls-2" d="M777.6,611.8c1.8,0,3.4.2,4.8.5,1.4.4,2.6,1,3.5,1.8.9.9,1.6,2,2.1,3.4.5,1.4.7,3.2.7,5.4s-.6,5.3-1.7,6.9c-1.1,1.6-2.7,2.8-4.7,3.5,1,.7,1.8,1.6,2.4,2.6.6,1,1.1,2.3,1.6,3.9l3,9h-3.5l-2.7-8.3c-.3-.9-.6-1.8-1-2.6-.4-.8-.8-1.4-1.2-2-.4-.6-1-1-1.5-1.3-.6-.3-1.3-.4-2-.4s-1.9,0-2.8-.2c-1-.1-2-.3-3.1-.4v15.2h-3.3v-37.1h9.5ZM771.4,630.7c1.1.2,2.1.4,3.1.5,1,0,1.9.1,2.9.1,2.9,0,5-.7,6.1-2.1,1.2-1.4,1.7-3.5,1.7-6.4s-.1-2.9-.4-4c-.3-1-.8-1.9-1.4-2.5-.6-.6-1.4-1-2.4-1.3-1-.3-2.1-.4-3.5-.4h-6.2v16h0Z"/>
    <polygon class="cls-2" points="839.6 611.8 839.6 648.9 836.2 648.9 836.2 611.8 839.6 611.8 839.6 611.8"/>
    <path class="cls-2" d="M891.2,648.9h-3.3v-24.1c0-1.9.2-3.7.6-5.4.4-1.7,1-3.1,1.9-4.3.9-1.2,2-2.1,3.4-2.8,1.4-.7,3.2-1,5.2-1s3.9.3,5.3,1c1.4.7,2.6,1.6,3.4,2.8.9,1.2,1.5,2.6,1.8,4.3.4,1.7.5,3.5.5,5.4v24.1h-3.3v-14.7h-15.5v14.7h0ZM906.7,631.2v-6.4c0-1.5-.1-2.9-.3-4.2-.2-1.3-.6-2.4-1.2-3.4-.6-.9-1.4-1.7-2.4-2.3-1-.6-2.3-.8-3.8-.8s-2.8.3-3.8.8-1.8,1.3-2.4,2.3c-.6.9-1,2.1-1.2,3.4-.2,1.3-.3,2.7-.3,4.2v6.4h15.5Z"/>
  </g>
</svg>